<svg width="40" height="40" viewBox="0 0 40 40" fill="none" xmlns="http://www.w3.org/2000/svg">
<path opacity="0.2" d="M20.201 5.16901C11.947 5.16901 5.255 11.861 5.255 20.115C5.255 28.37 11.947 35.061 20.201 35.061C28.455 35.061 35.147 28.37 35.147 20.115C35.146 11.861 28.455 5.16901 20.201 5.16901ZM20.201 31.749C13.776 31.749 8.56701 26.541 8.56701 20.115C8.56701 13.69 13.776 8.48101 20.201 8.48101C26.626 8.48101 31.834 13.69 31.834 20.115C31.834 26.541 26.626 31.749 20.201 31.749Z" fill="black"/>
<path d="M26.0131 10.047L27.667 7.18101C25.469 5.90901 22.924 5.16901 20.201 5.16901V8.48101C22.32 8.48101 24.3011 9.05701 26.0131 10.047Z" fill="black"/>
</svg>
